<svg xmlns="http://www.w3.org/2000/svg" viewBox="0 0 333333 333333" shape-rendering="geometricPrecision" text-rendering="geometricPrecision" image-rendering="optimizeQuality" fill-rule="evenodd" clip-rule="evenodd"><path d="M242549 83829l-88 260c-18200-3390-44462-5162-72166-4843-28002 322-57622 2752-82027 7770l-20-100C66963-13222 270644 1080 242550 83829zM79146 273708c4078 0 7383 3306 7383 7383 0 4078-3306 7383-7383 7383-4078 0-7383-3306-7383-7383 0-4078 3306-7383 7383-7383zm177914 0c4078 0 7383 3306 7383 7383 0 4078-3306 7383-7383 7383-4078 0-7383-3306-7383-7383 0-4078 3306-7383 7383-7383zm-132842-81489c-12381 8686-25309 11913-37946 14234l18017 51067h130923l14178-50723c-11235-1143-21745-2037-29986-6367-3716-2333-6991-5559-9984-9657l-521-8440c2918-2396 5731-5210 8128-8336 5419-6773 7503-13755 10107-22612 521-1876 1042-3751 1667-5626 5106-521 9587-6252 12296-13338 1459-3959 2605-8440 2917-12400 417-4169 0-8024-1459-10629-1146-2084-2918-3439-5315-3647-177-2076 763-6491 2031-11183-17231-3097-42265-4706-68892-4399-27338 314-56204 2676-79874 7552l2312 11053c-1772 2918-2188 7502-1667 12400 521 4793 1980 9795 4064 13963 2709 5314 6565 9066 11045 9066 417 1250 938 2605 1355 3959 3647 10733 6356 18860 12921 26571 1876 2293 3960 4376 6148 6252l-521 9480c-632 602-1280 1188-1944 1760zm-58831 18102c-23275 5294-43694 16752-55189 67239L-1 316609h55330v-48322c0-5922 4845-10767 10767-10767h11502c-485-18709-9839-38358-12211-47199zm215490 106287h52456l-10782-41963c-10040-45185-30352-59134-51476-64474-2153 8853-8706 29748-9067 47348h8103c5922 0 10767 4845 10767 10767v48322zM144664 52899h44005c1034 0 1880 846 1880 1881v10155c0 1035-846 1881-1880 1881h-44005c-1034 0-1880-846-1880-1881V54780c0-1035 846-1881 1880-1881zm57643 132768c-11757 7837-18934 12151-34152 11775-14805-224-22531-5228-34361-12713-878 49419 69736 52354 68513 938zm17630-35845c625-2189 1354-4481 2188-7190 312-1146 1459-1980 2605-1772 3439 625 6877-4376 9274-10420 1355-3647 2397-7607 2710-11149 313-3335 0-6252-938-8024-929-1724-3502-718-5419-2396-9867 26175-95917 38017-131137 1980-1250 1980-1459 5522-1042 9482 521 4168 1771 8753 3647 12400 2188 4272 5002 7190 7815 6461 1146-313 2397 312 2814 1459 833 2292 1354 4064 1980 5835 18248 53588 87600 57781 105504 3335z" fill="#050505"/></svg>